<?xml version="1.0" encoding="UTF-8" standalone="no"?>
<!-- Created with Inkscape (http://www.inkscape.org/) -->

<svg
   xmlns:dc="http://purl.org/dc/elements/1.1/"
   xmlns:cc="http://creativecommons.org/ns#"
   xmlns:rdf="http://www.w3.org/1999/02/22-rdf-syntax-ns#"
   xmlns:svg="http://www.w3.org/2000/svg"
   xmlns="http://www.w3.org/2000/svg"
   xmlns:sodipodi="http://sodipodi.sourceforge.net/DTD/sodipodi-0.dtd"
   xmlns:inkscape="http://www.inkscape.org/namespaces/inkscape"
   width="210mm"
   height="297mm"
   viewBox="0 0 210 297"
   version="1.1"
   id="svg8"
   inkscape:version="0.92.2 5c3e80d, 2017-08-06"
   sodipodi:docname="logo-1.svg">
  <defs
     id="defs2" />
  <sodipodi:namedview
     id="base"
     pagecolor="#ffffff"
     bordercolor="#666666"
     borderopacity="1.0"
     inkscape:pageopacity="0.0"
     inkscape:pageshadow="2"
     inkscape:zoom="0.45254834"
     inkscape:cx="-1649.2016"
     inkscape:cy="-4605.6341"
     inkscape:document-units="px"
     inkscape:current-layer="layer1"
     showgrid="true"
     showborder="false"
     inkscape:window-width="2560"
     inkscape:window-height="1396"
     inkscape:window-x="0"
     inkscape:window-y="0"
     inkscape:window-maximized="1">
    <inkscape:grid
       type="axonomgrid"
       id="grid4504"
       units="px"
       empspacing="5"
       spacingy="26.458333" />
  </sodipodi:namedview>
  <metadata
     id="metadata5">
    <rdf:RDF>
      <cc:Work
         rdf:about="">
        <dc:format>image/svg+xml</dc:format>
        <dc:type
           rdf:resource="http://purl.org/dc/dcmitype/StillImage" />
        <dc:title></dc:title>
      </cc:Work>
    </rdf:RDF>
  </metadata>
  <g
     inkscape:label="Layer 1"
     inkscape:groupmode="layer"
     id="layer1">
    <path
       style="fill:#000000;stroke:#000000;stroke-width:0.26458332px;stroke-linecap:butt;stroke-linejoin:miter;stroke-opacity:1;fill-opacity:0.85714287"
       d="m -573.84375,1429 c -33.85014,19.5411 -67.70388,39.0825 -101.55469,58.625 34.18571,19.7339 68.37159,39.4675 102.5586,59.1992 34.18573,-19.7316 68.37021,-39.4654 102.55468,-59.1992 -34.18548,-19.7356 -68.37325,-39.4673 -102.55859,-59.2031 l -0.86573,0.5005 z"
       id="path4559"
       inkscape:connector-curvature="0" />
    <path
       style="fill:#000000;stroke:#000000;stroke-width:0.26458332px;stroke-linecap:butt;stroke-linejoin:miter;stroke-opacity:1;fill-opacity:0.85714287"
       d="m -681.4082,1501.4844 c 0,38.3229 0,76.6458 0,114.9687 34.18867,19.7397 68.37945,39.4756 102.56836,59.2149 0,-39.4779 0,-78.9558 0,-118.4336 -34.18868,-19.7397 -68.37946,-39.4756 -102.56836,-59.2149 0,1.155 0,2.3099 0,3.4649 z"
       id="path4561"
       inkscape:connector-curvature="0" />
    <path
       style="fill:#000000;stroke:#000000;stroke-width:0.26458332px;stroke-linecap:butt;stroke-linejoin:miter;stroke-opacity:1;fill-opacity:0.85714287"
       d="m -467.27148,1499.752 c -33.18889,19.1617 -66.3797,38.3202 -99.56836,57.4824 0,39.4778 0,78.9557 0,118.4336 34.1889,-19.7393 68.37968,-39.4752 102.56836,-59.2149 0,-39.4778 0,-78.9557 0,-118.4336 -1,0.5775 -2,1.155 -3,1.7325 z"
       id="path4563"
       inkscape:connector-curvature="0" />
    <path
       style="fill:#000000;stroke:#000000;stroke-width:0.26458332px;stroke-linecap:butt;stroke-linejoin:miter;stroke-opacity:1;fill-opacity:0.61904764"
       d="m -452.27148,1501.4844 c 0,38.3229 0,76.6458 0,114.9687 34.18867,19.7397 68.37945,39.4756 102.56836,59.2149 -10e-6,-39.4779 0,-78.9558 0,-118.4336 -34.18868,-19.7397 -68.37946,-39.4756 -102.56836,-59.2149 0,1.155 0,2.3099 0,3.4649 z"
       id="path4565"
       inkscape:connector-curvature="0" />
    <path
       style="fill:#000000;stroke:#000000;stroke-width:0.26458332px;stroke-linecap:butt;stroke-linejoin:miter;stroke-opacity:1;fill-opacity:0.61904764"
       d="m -459.27539,1627.4375 c -33.85015,19.5411 -67.70389,39.0825 -101.55469,58.625 34.18571,19.7339 68.37159,39.4675 102.5586,59.1992 34.18573,-19.7316 68.37021,-39.4654 102.55468,-59.1992 -34.18548,-19.7356 -68.37325,-39.4673 -102.55859,-59.2031 l -0.86574,0.5005 z"
       id="path4567"
       inkscape:connector-curvature="0" />
    <path
       style="fill:#000000;stroke:#000000;stroke-width:0.26458332px;stroke-linecap:butt;stroke-linejoin:miter;stroke-opacity:1;fill-opacity:0.61904764"
       d="m -688.41211,1627.4375 c -33.85014,19.5411 -67.70388,39.0825 -101.55469,58.625 34.18571,19.7339 68.37159,39.4675 102.5586,59.1992 34.18573,-19.7316 68.37021,-39.4654 102.55468,-59.1992 -34.18548,-19.7356 -68.37325,-39.4673 -102.55859,-59.2031 l -0.86573,0.5005 z"
       id="path4569"
       inkscape:connector-curvature="0" />
    <path
       style="fill:#000000;stroke:#000000;stroke-width:0.26458332px;stroke-linecap:butt;stroke-linejoin:miter;stroke-opacity:1;fill-opacity:0.61904764"
       d="m -696.4082,1499.752 c -33.18889,19.1617 -66.3797,38.3202 -99.56836,57.4824 0,39.4778 0,78.9557 0,118.4336 34.1889,-19.7393 68.37968,-39.4752 102.56836,-59.2149 0,-39.4778 0,-78.9557 0,-118.4336 -1,0.5775 -2,1.155 -3,1.7325 z"
       id="path4571"
       inkscape:connector-curvature="0" />
    <path
       style="fill:#000000;stroke:#000000;stroke-width:0.26458332px;stroke-linecap:butt;stroke-linejoin:miter;stroke-opacity:1;fill-opacity:0.61904764"
       d="m -581.83984,1301.3145 c -33.18889,19.1617 -66.3797,38.3202 -99.56836,57.4824 0,39.4778 0,78.9557 0,118.4336 34.1889,-19.7393 68.37968,-39.4752 102.56836,-59.2149 0,-39.4778 0,-78.9557 0,-118.4336 -1,0.5775 -2,1.155 -3,1.7325 z"
       id="path4573"
       inkscape:connector-curvature="0" />
    <path
       style="fill:#000000;stroke:#000000;stroke-width:0.26458332px;stroke-linecap:butt;stroke-linejoin:miter;stroke-opacity:1;fill-opacity:0.61904764"
       d="m -566.83984,1303.0469 c 0,38.3229 0,76.6458 0,114.9687 34.18867,19.7397 68.37945,39.4756 102.56836,59.2149 0,-39.4779 0,-78.9558 0,-118.4336 -34.18868,-19.7397 -68.37946,-39.4756 -102.56836,-59.2149 0,1.155 0,2.3099 0,3.4649 z"
       id="path4575"
       inkscape:connector-curvature="0" />
  </g>
</svg>
